<svg xmlns="http://www.w3.org/2000/svg" viewBox="0 0 170.19 325"><defs><style>.cls-1{fill:#121109;}</style></defs><title>Asset 2Fin</title><g id="Layer_2" data-name="Layer 2"><g id="Layer_1-2" data-name="Layer 1"><path class="cls-1" d="M141.19,37c5.5,0,12.41,3.8,15.35,8.45l8.3,13.1c2.94,4.65,5.35,4,5.35-1.55V10c0-5.5-3.8-7.6-8.45-4.66l-.51.32A40.8,40.8,0,0,1,142.77,11H88.94V0h-8V11H31.19c-5.5,0-6.23,2.45-1.62,5.45l23.24,15.1A39.74,39.74,0,0,0,71.19,37h9.75V83.15A12.82,12.82,0,0,0,69.7,90.73L57.06,113.49a13.34,13.34,0,0,1,18.84-.89c.31.29.6.58.89.89A13,13,0,0,0,79,116.8a12.24,12.24,0,0,0,1.92,1.67V174H50.19c-5.5,0-7.26,3.57-3.9,7.93l7.8,10.14c3.36,4.36,10.6,7.93,16.1,7.93H80.94v37.15a12.82,12.82,0,0,0-11.24,7.58L57.06,267.49a13.34,13.34,0,0,1,18.84-.89c.31.29.6.58.89.89A13,13,0,0,0,79,270.8a12.24,12.24,0,0,0,1.92,1.67V325h8V274.85a12.84,12.84,0,0,0,11.24-7.58l12.64-22.76A13.35,13.35,0,0,1,94,245.4c-.31-.29-.6-.58-.88-.89a12.51,12.51,0,0,0-4.15-5V200h53.83a40.8,40.8,0,0,1,18.46,5.34l.51.32c4.65,2.94,8.45.84,8.45-4.66V154c0-5.5-2.41-6.2-5.35-1.55l-8.3,13.1c-2.94,4.65-9.85,8.45-15.35,8.45H88.94V120.85a12.84,12.84,0,0,0,11.24-7.58l12.64-22.76A13.35,13.35,0,0,1,94,91.4c-.31-.29-.6-.58-.88-.89a12.51,12.51,0,0,0-4.15-5V37Z"/><path class="cls-1" d="M38.19,128l6-11c-1.55,0,9.07-10.42,7.56-10.3a50.53,50.53,0,0,0,3.54-57.39C46.47,35,39.44,34,24.38,34c25.91,6.41,31.5,36.58,19.29,57.36C38,101,28.74,109,21.19,117c.47,0-7.57,8.48-7.1,8.46-17.71,19.88-18.81,50.61-2.79,71.75C23.92,213.86,37.52,210,56.56,210,24.78,192.53,25.39,156.8,38.19,128Z"/></g></g></svg>