<?xml version="1.0" encoding="utf-8"?>
<!-- Generator: Adobe Illustrator 12.0.0, SVG Export Plug-In . SVG Version: 6.00 Build 51448)  -->
<!DOCTYPE svg PUBLIC "-//W3C//DTD SVG 1.1//EN" "http://www.w3.org/Graphics/SVG/1.1/DTD/svg11.dtd" [
	<!ENTITY ns_svg "http://www.w3.org/2000/svg">
	<!ENTITY ns_xlink "http://www.w3.org/1999/xlink">
]>
<svg  version="1.1" xmlns="&ns_svg;" xmlns:xlink="&ns_xlink;" width="820.959" height="240.357" viewBox="0 0 820.959 240.357"
	 overflow="visible" enable-background="new 0 0 820.959 240.357" xml:space="preserve">
<g id="Layer_1">
</g>
<g id="Layer_2">
	<g>
		<g>
			<path fill="#0054A6" d="M381.215,140.931h93.06c0,0,42.209-42.554,43.583-43.939c1.375,1.386,43.591,43.939,43.591,43.939h90.62
				L516.641,4.409L381.215,140.931z"/>
			<path d="M516.64,2.99l-1.42,1.431L382.195,138.522l-3.381,3.409h4.801h90.242h0.833l0.587-0.592l42.58-42.927l42.588,42.928
				l0.587,0.591h0.833h87.804h4.801l-3.381-3.409L518.06,4.421L516.64,2.99L516.64,2.99z M383.615,139.931L516.64,5.83
				l133.028,134.101l0,0l0,0h-87.804l-44.008-44.359l-44,44.359H383.615L383.615,139.931L383.615,139.931L383.615,139.931z"/>
		</g>
		<g>
			<path fill="#FFFFFF" d="M168.891,140.928h93.198c0,0,42.279-42.623,43.654-44.009c1.375,1.386,43.656,44.009,43.656,44.009
				h90.754L304.521,4.199L168.891,140.928z"/>
			<path d="M304.521,2.78l-1.42,1.431l-133.23,134.308l-3.381,3.409h4.801h90.381h0.833l0.587-0.592l42.65-42.998l42.652,42.998
				l0.587,0.592h0.833h87.938h4.801l-3.381-3.409L305.941,4.211L304.521,2.78L304.521,2.78z M171.291,139.928L304.521,5.62
				l133.231,134.308l0,0l0,0h-87.938l-44.072-44.429l-44.07,44.429H171.291L171.291,139.928L171.291,139.928L171.291,139.928z"/>
		</g>
		<g>
			<path fill="#ED1C24" d="M274.172,140.889h95.042c0,0,43.179-43.528,44.554-44.915c1.375,1.387,44.554,44.915,44.554,44.915h92.55
				L412.521,1.42L274.172,140.889z"/>
			<path d="M412.521,0l-1.42,1.431L275.152,138.48l-3.381,3.409h4.801h92.225h0.833l0.587-0.592l43.55-43.903l43.551,43.904
				l0.587,0.591h0.833h89.732h4.801l-3.381-3.409L413.94,1.431L412.521,0L412.521,0z M276.572,139.889L412.521,2.84L548.47,139.889
				l0,0l0,0h-89.732l-44.971-45.335l-44.97,45.335H276.572L276.572,139.889L276.572,139.889L276.572,139.889z"/>
		</g>
	</g>
	<rect y="233.357" width="820.959" height="7"/>
	<g>
		<path d="M12.571,211.613v-58.188h11.875v48.25h29.375v9.938H12.571z"/>
		<path d="M59.66,189.73c0-3.736,0.918-7.352,2.754-10.848s4.438-6.166,7.804-8.008s7.125-2.762,11.277-2.762
			c6.413,0,11.669,2.088,15.768,6.266c4.098,4.176,6.147,9.453,6.147,15.832c0,6.434-2.069,11.764-6.207,15.994
			c-4.139,4.23-9.348,6.346-15.628,6.346c-3.886,0-7.592-0.881-11.117-2.643c-3.526-1.762-6.208-4.344-8.044-7.746
			S59.66,194.615,59.66,189.73z M71.223,190.332c0,4.211,0.993,7.436,2.98,9.674c1.986,2.238,4.438,3.357,7.352,3.357
			s5.358-1.119,7.332-3.357s2.961-5.49,2.961-9.754c0-4.156-0.987-7.355-2.961-9.594s-4.418-3.357-7.332-3.357
			s-5.365,1.119-7.352,3.357C72.216,182.896,71.223,186.121,71.223,190.332z"/>
		<path d="M131.812,169.113v9h-7.688v17.096c0,3.463,0.073,5.48,0.221,6.053c0.146,0.572,0.48,1.045,1.002,1.418
			c0.521,0.373,1.155,0.559,1.904,0.559c1.042,0,2.552-0.361,4.529-1.082l0.969,8.715c-2.613,1.119-5.572,1.68-8.878,1.68
			c-2.026,0-3.853-0.34-5.479-1.02c-1.627-0.678-2.819-1.557-3.579-2.637c-0.76-1.078-1.286-2.537-1.579-4.375
			c-0.24-1.305-0.36-3.941-0.36-7.91v-18.496h-5.188v-9h5.188v-8.438l11.25-6.625v15.063H131.812z"/>
		<path d="M159.118,169.113v9h-7.688v17.096c0,3.463,0.073,5.48,0.221,6.053c0.146,0.572,0.48,1.045,1.002,1.418
			c0.521,0.373,1.155,0.559,1.904,0.559c1.042,0,2.552-0.361,4.529-1.082l0.969,8.715c-2.613,1.119-5.572,1.68-8.878,1.68
			c-2.026,0-3.853-0.34-5.479-1.02c-1.627-0.678-2.819-1.557-3.579-2.637c-0.76-1.078-1.286-2.537-1.579-4.375
			c-0.24-1.305-0.36-3.941-0.36-7.91v-18.496h-5.188v-9h5.188v-8.438l11.25-6.625v15.063H159.118z"/>
		<path d="M162.425,211.613V202.8l15.896-18.27c2.609-2.984,4.539-5.104,5.791-6.355c-1.305,0.084-3.022,0.139-5.151,0.166
			l-14.974,0.084v-9.313h35.125v7.938l-16.224,18.732l-5.714,6.205c3.118-0.166,5.051-0.25,5.797-0.25h17.391v9.875H162.425z"/>
		<path d="M230.832,211.613v-58.688h19.008c7.202,0,11.897,0.294,14.085,0.881c3.361,0.881,6.176,2.797,8.443,5.747
			c2.268,2.951,3.401,6.761,3.401,11.433c0,3.604-0.653,6.635-1.959,9.09c-1.307,2.457-2.966,4.387-4.978,5.787
			c-2.013,1.402-4.059,2.33-6.137,2.783c-2.825,0.561-6.916,0.842-12.273,0.842h-7.716v22.125H230.832z M242.707,162.863v16.688
			h6.479c4.665,0,7.784-0.309,9.357-0.924c1.572-0.615,2.806-1.576,3.699-2.887c0.893-1.311,1.34-2.836,1.34-4.574
			c0-2.139-0.627-3.904-1.88-5.295s-2.839-2.26-4.759-2.607c-1.413-0.268-4.252-0.4-8.518-0.4H242.707z"/>
		<path d="M296.15,211.613H284.9v-42.5h10.438v6.045c1.798-2.855,3.415-4.744,4.851-5.664s3.065-1.381,4.891-1.381
			c2.576,0,5.058,0.705,7.446,2.115l-3.469,9.789c-1.909-1.229-3.684-1.842-5.324-1.842c-1.586,0-2.931,0.434-4.033,1.303
			s-1.97,2.439-2.602,4.711s-0.947,7.029-0.947,14.273V211.613z"/>
		<path d="M314.749,189.73c0-3.736,0.918-7.352,2.754-10.848s4.438-6.166,7.803-8.008c3.367-1.842,7.125-2.762,11.277-2.762
			c6.414,0,11.67,2.088,15.768,6.266c4.098,4.176,6.148,9.453,6.148,15.832c0,6.434-2.07,11.764-6.207,15.994
			c-4.139,4.23-9.348,6.346-15.629,6.346c-3.885,0-7.592-0.881-11.117-2.643c-3.525-1.762-6.207-4.344-8.043-7.746
			S314.749,194.615,314.749,189.73z M326.312,190.332c0,4.211,0.992,7.436,2.98,9.674c1.986,2.238,4.438,3.357,7.352,3.357
			s5.357-1.119,7.332-3.357c1.973-2.238,2.961-5.49,2.961-9.754c0-4.156-0.988-7.355-2.961-9.594
			c-1.975-2.238-4.418-3.357-7.332-3.357s-5.365,1.119-7.352,3.357C327.304,182.896,326.312,186.121,326.312,190.332z"/>
		<path d="M367.087,169.113h10.5v6.246c1.361-2.135,3.205-3.877,5.527-5.225s4.9-2.021,7.731-2.021c4.94,0,9.131,1.936,12.577,5.805
			c3.443,3.869,5.166,9.262,5.166,16.174c0,7.1-1.736,12.617-5.209,16.555c-3.473,3.936-7.678,5.904-12.62,5.904
			c-2.352,0-4.483-0.469-6.393-1.402s-3.92-2.535-6.029-4.805V227.8h-11.25V169.113z M378.149,189.599
			c0,4.777,0.947,8.309,2.84,10.59c1.893,2.283,4.199,3.424,6.918,3.424c2.614,0,4.786-1.047,6.518-3.143
			c1.733-2.096,2.6-5.533,2.6-10.311c0-4.457-0.893-7.768-2.68-9.93c-1.785-2.162-3.998-3.242-6.637-3.242
			c-2.746,0-5.027,1.061-6.84,3.184C379.056,182.292,378.149,185.435,378.149,189.599z"/>
		<path d="M442.114,198.05l11.188,1.875c-1.439,4.115-3.711,7.248-6.816,9.398s-6.99,3.227-11.654,3.227
			c-7.385,0-12.848-2.416-16.393-7.246c-2.799-3.869-4.199-8.754-4.199-14.652c0-7.047,1.84-12.564,5.521-16.555
			c3.68-3.99,8.334-5.984,13.963-5.984c6.32,0,11.309,2.086,14.963,6.26c3.654,4.172,5.4,10.564,5.24,19.178h-28.125
			c0.08,3.334,0.984,5.928,2.713,7.781s3.881,2.781,6.461,2.781c1.754,0,3.23-0.479,4.428-1.436
			C440.599,201.72,441.503,200.177,442.114,198.05z M442.739,186.675c-0.08-3.246-0.916-5.715-2.51-7.404s-3.533-2.533-5.818-2.533
			c-2.445,0-4.463,0.891-6.057,2.674c-1.596,1.783-2.379,4.203-2.352,7.264H442.739z"/>
		<path d="M473.843,211.613h-11.25v-42.5h10.438v6.045c1.799-2.855,3.416-4.744,4.852-5.664s3.064-1.381,4.891-1.381
			c2.576,0,5.057,0.705,7.445,2.115l-3.469,9.789c-1.908-1.229-3.684-1.842-5.324-1.842c-1.586,0-2.93,0.434-4.033,1.303
			c-1.102,0.869-1.969,2.439-2.602,4.711c-0.631,2.271-0.947,7.029-0.947,14.273V211.613z"/>
		<path d="M514.505,169.113v9h-7.688v17.096c0,3.463,0.074,5.48,0.221,6.053s0.48,1.045,1.002,1.418s1.156,0.559,1.904,0.559
			c1.043,0,2.553-0.361,4.529-1.082l0.969,8.715c-2.613,1.119-5.572,1.68-8.877,1.68c-2.027,0-3.854-0.34-5.479-1.02
			c-1.627-0.678-2.82-1.557-3.58-2.637c-0.76-1.078-1.285-2.537-1.578-4.375c-0.24-1.305-0.361-3.941-0.361-7.91v-18.496h-5.188v-9
			h5.188v-8.438l11.25-6.625v15.063H514.505z"/>
		<path d="M522.249,163.363v-10.438h11.25v10.438H522.249z M522.249,211.613v-42.5h11.25v42.5H522.249z"/>
		<path d="M569.718,198.05l11.188,1.875c-1.439,4.115-3.711,7.248-6.816,9.398s-6.99,3.227-11.654,3.227
			c-7.385,0-12.848-2.416-16.393-7.246c-2.799-3.869-4.199-8.754-4.199-14.652c0-7.047,1.84-12.564,5.521-16.555
			c3.68-3.99,8.334-5.984,13.963-5.984c6.32,0,11.309,2.086,14.963,6.26c3.654,4.172,5.4,10.564,5.24,19.178h-28.125
			c0.08,3.334,0.984,5.928,2.713,7.781s3.881,2.781,6.461,2.781c1.754,0,3.23-0.479,4.428-1.436
			C568.202,201.72,569.106,200.177,569.718,198.05z M570.343,186.675c-0.08-3.246-0.916-5.715-2.51-7.404s-3.533-2.533-5.818-2.533
			c-2.445,0-4.463,0.891-6.057,2.674c-1.596,1.783-2.379,4.203-2.352,7.264H570.343z"/>
		<path d="M586.761,199.55l11.313-1.75c0.48,2.168,1.453,3.814,2.92,4.939c1.467,1.123,3.521,1.686,6.164,1.686
			c2.906,0,5.094-0.535,6.561-1.604c0.986-0.748,1.48-1.75,1.48-3.006c0-0.854-0.268-1.563-0.801-2.123
			c-0.561-0.533-1.816-1.027-3.766-1.482c-9.078-2.004-14.832-3.832-17.262-5.486c-3.365-2.295-5.047-5.482-5.047-9.564
			c0-3.682,1.457-6.777,4.369-9.285s7.426-3.762,13.545-3.762c5.824,0,10.152,0.947,12.984,2.842s4.783,4.697,5.852,8.408
			l-10.625,1.938c-0.455-1.654-1.316-2.924-2.588-3.805c-1.27-0.881-3.082-1.32-5.436-1.32c-2.969,0-5.096,0.414-6.379,1.242
			c-0.857,0.588-1.285,1.35-1.285,2.283c0,0.803,0.375,1.482,1.123,2.043c1.016,0.748,4.525,1.805,10.527,3.166
			c6.002,1.363,10.191,3.033,12.57,5.008c2.354,2.004,3.529,4.795,3.529,8.373c0,3.898-1.629,7.25-4.889,10.053
			c-3.26,2.805-8.08,4.207-14.465,4.207c-5.797,0-10.387-1.166-13.766-3.498S587.802,203.552,586.761,199.55z"/>
		<path d="M659.522,211.613v-58.188h11.875v48.25h29.375v9.938H659.522z"/>
		<path d="M709.61,211.613v-58.188h11.875v48.25h29.375v9.938H709.61z"/>
		<path d="M796.888,189.988l11.5,3.563c-1.762,6.447-4.691,11.236-8.787,14.367c-4.098,3.131-9.295,4.695-15.594,4.695
			c-7.793,0-14.199-2.662-19.217-7.986s-7.527-12.604-7.527-21.838c0-9.768,2.521-17.354,7.563-22.757
			c5.041-5.404,11.67-8.106,19.887-8.106c7.176,0,13.004,2.124,17.486,6.37c2.668,2.511,4.668,6.117,6.002,10.818l-11.75,2.813
			c-0.693-3.051-2.141-5.459-4.34-7.227c-2.199-1.766-4.873-2.648-8.02-2.648c-4.348,0-7.873,1.561-10.58,4.684
			s-4.061,8.182-4.061,15.174c0,7.42,1.336,12.705,4.006,15.855s6.141,4.725,10.414,4.725c3.15,0,5.861-1.006,8.131-3.016
			S795.899,194.302,796.888,189.988z"/>
	</g>
</g>
</svg>
